<?xml version="1.0" standalone="no"?>
<!DOCTYPE svg PUBLIC "-//W3C//DTD SVG 20010904//EN"
 "http://www.w3.org/TR/2001/REC-SVG-20010904/DTD/svg10.dtd">
<svg version="1.0" xmlns="http://www.w3.org/2000/svg"
 width="442.000000pt" height="442.000000pt" viewBox="0 0 442.000000 442.000000"
 preserveAspectRatio="xMidYMid meet">
<metadata>
Created by potrace 1.11, written by Peter Selinger 2001-2013
</metadata>
<g transform="translate(0.000000,442.000000) scale(0.100000,-0.100000)"
fill="#000000" stroke="none">
<path d="M0 2210 l0 -2030 2210 0 2210 0 0 2030 0 2030 -2210 0 -2210 0 0
-2030z m2375 1439 c7 -8 -169 -1447 -179 -1456 -7 -7 -674 72 -683 80 -2 3 1
57 7 121 17 160 8 550 -15 676 -21 119 -59 242 -91 297 l-25 42 43 27 c161
102 397 187 593 213 77 10 340 10 350 0z m170 -25 c230 -48 475 -173 665 -338
243 -211 410 -502 481 -836 18 -83 22 -140 23 -272 1 -91 -2 -169 -5 -172 -6
-7 -717 79 -726 87 -8 9 46 308 82 450 60 240 132 422 212 540 60 88 56 103
-7 25 -108 -136 -202 -370 -274 -678 -20 -86 -56 -297 -56 -328 0 -9 -677 72
-687 82 -4 4 32 329 80 724 48 394 87 723 87 730 0 8 8 11 23 8 12 -3 58 -12
102 -22z m-1139 -279 c65 -147 89 -366 80 -714 -8 -311 -12 -351 -35 -351 -9
-1 -172 18 -363 42 l-348 42 0 26 c0 14 11 70 24 125 64 263 198 503 386 694
71 72 212 191 227 191 2 0 15 -25 29 -55z m-273 -1074 c175 -22 321 -41 324
-44 9 -10 -47 -313 -87 -465 -22 -84 -56 -197 -76 -250 -59 -158 -161 -342
-191 -342 -11 0 -92 103 -143 180 -55 86 -131 246 -164 346 -55 169 -89 432
-72 567 l8 58 41 -6 c23 -3 185 -23 360 -44z m1054 -135 c8 -8 -167 -1438
-177 -1449 -10 -11 -150 17 -249 50 -223 72 -446 208 -596 362 l-49 51 31 32
c110 118 223 382 292 683 25 108 61 317 61 352 0 9 676 -70 687 -81z m383 -41
c157 -19 302 -38 324 -41 l38 -6 -7 -62 c-47 -408 -2 -862 105 -1043 l19 -32
-77 -45 c-226 -132 -478 -199 -754 -199 -81 -1 -149 1 -152 4 -3 3 164 1406
174 1457 1 6 64 0 330 -33z m783 -97 l347 -42 0 -26 c0 -38 -35 -175 -70 -275
-75 -209 -184 -380 -349 -545 -64 -64 -139 -132 -167 -152 l-52 -36 -26 58
c-65 145 -91 368 -83 709 8 296 13 351 36 351 9 1 172 -18 364 -42z"/>
</g>
</svg>
